<svg xmlns="http://www.w3.org/2000/svg" viewBox="0 0 400 320" role="img" aria-label="Listening crystal orb">
  <defs>
    <linearGradient id="bg" x1="0" y1="0" x2="1" y2="1">
      <stop offset="0%" stop-color="#eef3f8"/>
      <stop offset="100%" stop-color="#dbe6f1"/>
    </linearGradient>
    <radialGradient id="orb" cx="50%" cy="40%" r="55%">
      <stop offset="0%" stop-color="#fff7de"/>
      <stop offset="55%" stop-color="#8ba8c9"/>
      <stop offset="100%" stop-color="#6788af"/>
    </radialGradient>
  </defs>
  <rect width="400" height="320" rx="28" fill="url(#bg)"/>
  <g fill="none" stroke="#8ba8c9" stroke-width="5" opacity="0.35">
    <circle cx="200" cy="142" r="94"/>
    <circle cx="200" cy="142" r="118"/>
    <circle cx="200" cy="142" r="142"/>
  </g>
  <circle cx="200" cy="142" r="72" fill="url(#orb)" stroke="#6788af" stroke-width="5"/>
  <path d="M154 232H246L228 274H172Z" fill="#3d2e1a" opacity="0.85"/>
  <path d="M176 78C190 66 212 66 226 80" fill="none" stroke="#fff7de" stroke-width="8" stroke-linecap="round" opacity="0.6"/>
  <g fill="#e8b84b">
    <path d="M200 94L205 108L220 113L205 118L200 132L195 118L180 113L195 108Z"/>
    <circle cx="154" cy="142" r="5"/>
    <circle cx="248" cy="154" r="5"/>
    <circle cx="212" cy="182" r="4"/>
  </g>
</svg>