<svg xmlns="http://www.w3.org/2000/svg" viewBox="0 0 400 320" role="img" aria-label="Magic wand and sparkles">
  <defs>
    <linearGradient id="bg" x1="0" y1="0" x2="1" y2="1">
      <stop offset="0%" stop-color="#f6efe2"/>
      <stop offset="100%" stop-color="#e7d4ba"/>
    </linearGradient>
    <linearGradient id="wand" x1="0" y1="0" x2="1" y2="1">
      <stop offset="0%" stop-color="#3d2e1a"/>
      <stop offset="100%" stop-color="#8ba8c9"/>
    </linearGradient>
    <radialGradient id="spark" cx="50%" cy="50%" r="50%">
      <stop offset="0%" stop-color="#fff7de"/>
      <stop offset="100%" stop-color="#e8b84b"/>
    </radialGradient>
  </defs>
  <rect width="400" height="320" rx="28" fill="url(#bg)"/>
  <circle cx="268" cy="108" r="72" fill="#fff7de" opacity="0.5"/>
  <path d="M120 244L260 104" stroke="url(#wand)" stroke-width="14" stroke-linecap="round"/>
  <path d="M108 256L142 222" stroke="#b85c6e" stroke-width="6" stroke-linecap="round" opacity="0.8"/>
  <g fill="url(#spark)">
    <path d="M276 56L283 77L304 84L283 91L276 112L269 91L248 84L269 77Z"/>
    <path d="M326 118L331 132L345 137L331 142L326 156L321 142L307 137L321 132Z"/>
    <path d="M238 132L242 144L254 148L242 152L238 164L234 152L222 148L234 144Z"/>
    <circle cx="304" cy="52" r="5"/>
    <circle cx="332" cy="84" r="4"/>
    <circle cx="208" cy="84" r="3"/>
  </g>
  <g fill="none" stroke="#4a8a5e" stroke-width="4" stroke-linecap="round" opacity="0.85">
    <path d="M82 234C112 224 130 236 150 220"/>
    <path d="M90 258C128 248 150 262 180 240"/>
  </g>
</svg>