<svg xmlns="http://www.w3.org/2000/svg" viewBox="0 0 400 320" role="img" aria-label="Spiral garden path">
  <defs>
    <linearGradient id="bg" x1="0" y1="0" x2="1" y2="1">
      <stop offset="0%" stop-color="#edf3ea"/>
      <stop offset="100%" stop-color="#dbe8d8"/>
    </linearGradient>
  </defs>
  <rect width="400" height="320" rx="28" fill="url(#bg)"/>
  <ellipse cx="200" cy="160" rx="150" ry="110" fill="#76a184" opacity="0.16"/>
  <path d="M258 80C214 56 148 66 120 108C94 148 108 202 152 222C194 241 242 228 266 196C286 168 278 132 244 118C215 106 190 116 178 136C168 154 174 178 194 188C212 197 230 190 238 176" fill="none" stroke="#2d5a3d" stroke-width="12" stroke-linecap="round" stroke-linejoin="round"/>
  <g fill="#e8b84b">
    <circle cx="252" cy="80" r="8"/>
    <circle cx="204" cy="72" r="6"/>
    <circle cx="152" cy="90" r="6"/>
    <circle cx="122" cy="132" r="6"/>
    <circle cx="132" cy="184" r="6"/>
    <circle cx="176" cy="216" r="6"/>
    <circle cx="232" cy="210" r="6"/>
    <circle cx="262" cy="174" r="6"/>
    <circle cx="232" cy="132" r="6"/>
    <circle cx="196" cy="142" r="5"/>
    <circle cx="204" cy="184" r="5"/>
  </g>
  <g fill="#b85c6e" opacity="0.8">
    <path d="M86 248C96 234 112 232 124 244C112 256 96 260 86 248Z"/>
    <path d="M306 238C318 224 336 224 348 238C336 252 318 254 306 238Z"/>
  </g>
</svg>