<svg xmlns="http://www.w3.org/2000/svg" viewBox="0 0 400 320" role="img" aria-label="Two labeled jars">
  <defs>
    <linearGradient id="bg" x1="0" y1="0" x2="1" y2="1">
      <stop offset="0%" stop-color="#f7f0e2"/>
      <stop offset="100%" stop-color="#ead7ba"/>
    </linearGradient>
    <linearGradient id="goldJar" x1="0" y1="0" x2="0" y2="1">
      <stop offset="0%" stop-color="#fff7de"/>
      <stop offset="100%" stop-color="#e8b84b"/>
    </linearGradient>
    <linearGradient id="roseJar" x1="0" y1="0" x2="0" y2="1">
      <stop offset="0%" stop-color="#f7d9e1"/>
      <stop offset="100%" stop-color="#d4849a"/>
    </linearGradient>
  </defs>
  <rect width="400" height="320" rx="28" fill="url(#bg)"/>
  <rect x="40" y="242" width="320" height="16" rx="8" fill="#3d2e1a" opacity="0.2"/>
  <g>
    <rect x="92" y="92" width="86" height="126" rx="24" fill="url(#goldJar)" stroke="#c9922f" stroke-width="4"/>
    <rect x="104" y="68" width="62" height="28" rx="12" fill="#3d2e1a"/>
    <rect x="108" y="118" width="54" height="36" rx="10" fill="#f5efe0" opacity="0.9"/>
    <text x="135" y="141" font-size="18" text-anchor="middle" font-family="Georgia, serif" fill="#1a1209">const</text>
    <circle cx="135" cy="176" r="16" fill="#fff7de" opacity="0.75"/>
  </g>
  <g>
    <rect x="222" y="92" width="86" height="126" rx="24" fill="url(#roseJar)" stroke="#b85c6e" stroke-width="4"/>
    <rect x="234" y="68" width="62" height="28" rx="12" fill="#6d4131"/>
    <rect x="238" y="118" width="54" height="36" rx="10" fill="#f5efe0" opacity="0.9"/>
    <text x="265" y="141" font-size="18" text-anchor="middle" font-family="Georgia, serif" fill="#1a1209">let</text>
    <path d="M246 182C257 168 274 170 284 182C274 194 257 196 246 182Z" fill="#fff7de" opacity="0.8"/>
  </g>
  <g fill="#c9922f">
    <circle cx="74" cy="72" r="4"/>
    <circle cx="332" cy="60" r="5"/>
    <path d="M198 44L202 55L213 59L202 63L198 74L194 63L183 59L194 55Z"/>
  </g>
</svg>